<svg width="94" height="94" viewBox="0 0 94 94" fill="none" xmlns="http://www.w3.org/2000/svg">
<path d="M80.2341 13.7659C71.3568 4.88873 59.5541 0 47 0C34.4459 0 22.6432 4.88873 13.7659 13.7659C4.88873 22.6432 0 34.4459 0 47C0 59.5541 4.88873 71.3568 13.7659 80.2341C22.6432 89.1113 34.4459 94 47 94C59.5541 94 71.3568 89.1113 80.2341 80.2341C89.1113 71.3568 94 59.5541 94 47C94 34.4459 89.1113 22.6432 80.2341 13.7659ZM47 90.2551C23.1492 90.2551 3.74495 70.851 3.74495 47C3.74495 23.149 23.1492 3.74495 47 3.74495C70.8508 3.74495 90.2551 23.1492 90.2551 47C90.2551 70.8508 70.8508 90.2551 47 90.2551Z" fill="#FED18C"/>
<path d="M39.6193 3.92199e-08C17.7732 3.92199e-08 3.92199e-08 17.7732 3.92199e-08 39.6193C3.92199e-08 61.4655 17.7732 79.2387 39.6193 79.2387C61.4655 79.2387 79.2387 61.4655 79.2387 39.6193C79.2387 17.7732 61.4655 3.92199e-08 39.6193 3.92199e-08ZM71.5775 55.9083L66.1777 52.7905C65.2823 52.2737 64.137 52.5803 63.6198 53.4759C63.1026 54.3715 63.4096 55.5167 64.3052 56.0337L69.6984 59.1475C66.9565 63.3562 63.3564 66.9563 59.1479 69.6981L56.0341 64.3048C55.5169 63.4091 54.3717 63.1023 53.4763 63.6195C52.5807 64.1365 52.2737 65.2817 52.7909 66.1773L55.9087 71.5771C51.5419 73.8119 46.66 75.1776 41.4922 75.4445V69.2046C41.4922 68.1704 40.6539 67.3321 39.6197 67.3321C38.5855 67.3321 37.7472 68.1704 37.7472 69.2046V75.4445C32.5794 75.1776 27.6977 73.8119 23.3307 71.5771L26.4485 66.1773C26.9657 65.2817 26.6587 64.1365 25.7632 63.6195C24.8678 63.1026 23.7223 63.4092 23.2053 64.3048L20.0916 69.6981C15.8827 66.9561 12.2828 63.3562 9.541 59.1475L14.9342 56.0337C15.8298 55.5167 16.1368 54.3715 15.6196 53.4759C15.1026 52.5803 13.9572 52.2734 13.0618 52.7905L7.66118 55.9083C5.42648 51.5416 4.06073 46.6596 3.79378 41.4918H10.0338C11.0679 41.4918 11.9062 40.6535 11.9062 39.6193C11.9062 38.5852 11.0679 37.7469 10.0338 37.7469H3.79378C4.06073 32.5791 5.42648 27.6973 7.66118 23.3304L13.061 26.4481C13.3559 26.6183 13.6779 26.6993 13.9955 26.6993C14.6427 26.6993 15.2721 26.3635 15.6189 25.7628C16.1361 24.8672 15.8291 23.722 14.9335 23.205L9.54027 20.0912C12.2822 15.8823 15.8821 12.2824 20.0908 9.54063L23.2046 14.9339C23.5514 15.5346 24.1808 15.8704 24.8279 15.8704C25.1456 15.8704 25.4676 15.7894 25.7624 15.6192C26.658 15.1022 26.965 13.957 26.4478 13.0614L23.3304 7.66118C27.697 5.42648 32.5791 4.06073 37.7469 3.79378V10.0338C37.7469 11.0679 38.5852 11.9062 39.6193 11.9062C40.6535 11.9062 41.4918 11.0679 41.4918 10.0338V3.79378C46.6596 4.06073 51.5414 5.42648 55.9083 7.66118L52.7905 13.061C52.2734 13.9566 52.5803 15.1019 53.4759 15.6189C53.7708 15.7891 54.0928 15.87 54.4104 15.87C55.0576 15.87 55.6869 15.5342 56.0337 14.9335L59.1475 9.54027C63.3564 12.2822 66.9563 15.8821 69.6981 20.0908L64.3048 23.2046C63.4092 23.7216 63.1023 24.8669 63.6195 25.7624C63.9663 26.3631 64.5956 26.6989 65.2428 26.6989C65.5604 26.6989 65.8824 26.618 66.1773 26.4478L71.5771 23.33C73.8119 27.6968 75.1776 32.5787 75.4445 37.7465H69.2046C68.1704 37.7465 67.3321 38.5848 67.3321 39.619C67.3321 40.6532 68.1704 41.4915 69.2046 41.4915H75.4445C75.178 46.6596 73.8124 51.5414 71.5775 55.9083Z" transform="translate(7.37988 7.38062)" fill="#FED18C"/>
<path d="M9.32223 13.8863V1.87247C9.32223 0.83829 8.48394 4.25816e-07 7.44976 4.25816e-07C6.41557 4.25816e-07 5.57728 0.83829 5.57728 1.87247V13.8863C3.44153 14.6557 1.91018 16.7019 1.91018 19.0996C1.91018 20.4615 2.40515 21.7094 3.22343 22.6749L0.251227 27.8231C-0.265956 28.7187 0.0410129 29.8639 0.936583 30.3809C1.23143 30.5513 1.55346 30.6321 1.87107 30.6321C2.51824 30.6321 3.1476 30.2963 3.49441 29.6956L6.46514 24.55C6.78496 24.6076 7.1136 24.6394 7.44976 24.6394C10.5044 24.6394 12.9893 22.1544 12.9893 19.0998C12.9893 16.7021 11.458 14.6559 9.32223 13.8863ZM7.44976 20.8943C6.46018 20.8943 5.65513 20.0892 5.65513 19.0996C5.65513 18.1101 6.46018 17.305 7.44976 17.305C8.43933 17.305 9.24438 18.1101 9.24438 19.0996C9.24438 20.0892 8.43933 20.8943 7.44976 20.8943Z" transform="translate(39.5508 27.9004)" fill="#FED18C"/>
<path d="M1.87247 -5.49078e-07C0.838289 -5.49078e-07 -9.41276e-07 0.838288 -9.41276e-07 1.87247V2.62153C-9.41276e-07 3.65572 0.838289 4.49401 1.87247 4.49401C2.90666 4.49401 3.74495 3.65572 3.74495 2.62153V1.87247C3.74495 0.838288 2.90666 -5.49078e-07 1.87247 -5.49078e-07Z" transform="translate(45.1279 21.7212)" fill="#FED18C"/>
</svg>
