<?xml version="1.0" encoding="iso-8859-1"?>
<svg xmlns="http://www.w3.org/2000/svg" xmlns:xlink="http://www.w3.org/1999/xlink" version="1.1" viewBox="0 0 295.82 295.82" enable-background="new 0 0 295.82 295.82" width="512px" height="512px">
  <g>
    <g>
      <path d="M147.91,0C66.124,0,0,66.124,0,147.91s66.124,147.91,147.91,147.91s147.91-66.124,147.91-147.91S229.696,0,147.91,0z     M147.91,278.419c-71.345,0-130.509-59.164-130.509-130.509S76.565,17.401,147.91,17.401S278.419,76.565,278.419,147.91    S219.255,278.419,147.91,278.419z" fill="#fed99b"/>
      <path d="m163.571,120.068c-8.701-8.701-24.362-8.701-33.062,0l-33.062,33.062c-3.48,3.48-3.48,8.701 0,12.181s8.701,3.48 12.181,0l33.062-33.062c3.48-1.74 6.96-1.74 8.701,0l33.062,33.062c1.74,1.74 5.22,1.74 6.96,1.74 1.74,0 5.22-1.74 5.22-1.74 3.48-3.48 3.48-8.701 0-12.181l-33.062-33.062z" fill="#fed99b"/>
    </g>
  </g>
</svg>
